<mxfile host="app.diagrams.net" modified="2023-09-03T02:09:26.359Z" agent="Mozilla/5.0 (Macintosh; Intel Mac OS X 10_15_7) AppleWebKit/537.36 (KHTML, like Gecko) Chrome/116.0.0.0 Safari/537.36" etag="7Fodb-XzDoA1OX_G2LOg" version="21.6.8" type="device">
  <diagram name="Page-1" id="64c3da0e-402f-94eb-ee01-a36477274f13">
    <mxGraphModel dx="1617" dy="1042" grid="1" gridSize="10" guides="1" tooltips="1" connect="1" arrows="1" fold="1" page="1" pageScale="1" pageWidth="827" pageHeight="1169" background="none" math="0" shadow="0">
      <root>
        <mxCell id="0" />
        <mxCell id="1" parent="0" />
        <mxCell id="sVLzmiFptOQufZ9ml3aE-329" value="" style="endArrow=none;html=1;rounded=0;strokeWidth=5;" edge="1" parent="1">
          <mxGeometry width="50" height="50" relative="1" as="geometry">
            <mxPoint x="479.8" y="103" as="sourcePoint" />
            <mxPoint x="479.8" y="83" as="targetPoint" />
          </mxGeometry>
        </mxCell>
        <mxCell id="sVLzmiFptOQufZ9ml3aE-330" value="" style="endArrow=none;html=1;rounded=0;strokeWidth=5;" edge="1" parent="1">
          <mxGeometry width="50" height="50" relative="1" as="geometry">
            <mxPoint x="412" y="80" as="sourcePoint" />
            <mxPoint x="412" y="60" as="targetPoint" />
          </mxGeometry>
        </mxCell>
        <mxCell id="sVLzmiFptOQufZ9ml3aE-327" value="" style="endArrow=none;html=1;rounded=0;strokeWidth=5;" edge="1" parent="1">
          <mxGeometry width="50" height="50" relative="1" as="geometry">
            <mxPoint x="349.8" y="103" as="sourcePoint" />
            <mxPoint x="349.8" y="83" as="targetPoint" />
          </mxGeometry>
        </mxCell>
        <mxCell id="sVLzmiFptOQufZ9ml3aE-326" value="" style="endArrow=none;html=1;rounded=0;strokeWidth=5;" edge="1" parent="1">
          <mxGeometry width="50" height="50" relative="1" as="geometry">
            <mxPoint x="209.8" y="103" as="sourcePoint" />
            <mxPoint x="209.8" y="83" as="targetPoint" />
          </mxGeometry>
        </mxCell>
        <mxCell id="sVLzmiFptOQufZ9ml3aE-325" value="" style="endArrow=none;html=1;rounded=0;strokeWidth=5;" edge="1" parent="1">
          <mxGeometry width="50" height="50" relative="1" as="geometry">
            <mxPoint x="69.8" y="101" as="sourcePoint" />
            <mxPoint x="70" y="78" as="targetPoint" />
          </mxGeometry>
        </mxCell>
        <mxCell id="sVLzmiFptOQufZ9ml3aE-321" value="" style="endArrow=none;html=1;rounded=0;strokeWidth=5;entryX=0.083;entryY=0.25;entryDx=0;entryDy=0;entryPerimeter=0;" edge="1" parent="1">
          <mxGeometry width="50" height="50" relative="1" as="geometry">
            <mxPoint x="710" y="260" as="sourcePoint" />
            <mxPoint x="710" y="120" as="targetPoint" />
          </mxGeometry>
        </mxCell>
        <mxCell id="sVLzmiFptOQufZ9ml3aE-317" value="" style="endArrow=none;html=1;rounded=0;strokeWidth=5;entryX=0.083;entryY=0.25;entryDx=0;entryDy=0;entryPerimeter=0;" edge="1" parent="1">
          <mxGeometry width="50" height="50" relative="1" as="geometry">
            <mxPoint x="570" y="330" as="sourcePoint" />
            <mxPoint x="570" y="110" as="targetPoint" />
          </mxGeometry>
        </mxCell>
        <mxCell id="sVLzmiFptOQufZ9ml3aE-310" value="" style="endArrow=none;html=1;rounded=0;strokeWidth=5;entryX=0.083;entryY=0.25;entryDx=0;entryDy=0;entryPerimeter=0;" edge="1" parent="1">
          <mxGeometry width="50" height="50" relative="1" as="geometry">
            <mxPoint x="430" y="542.4489795918367" as="sourcePoint" />
            <mxPoint x="430" y="120" as="targetPoint" />
          </mxGeometry>
        </mxCell>
        <mxCell id="sVLzmiFptOQufZ9ml3aE-307" value="" style="endArrow=none;html=1;rounded=0;strokeWidth=5;entryX=0.083;entryY=0.25;entryDx=0;entryDy=0;entryPerimeter=0;" edge="1" parent="1" target="6">
          <mxGeometry width="50" height="50" relative="1" as="geometry">
            <mxPoint x="300" y="330" as="sourcePoint" />
            <mxPoint x="300" y="160" as="targetPoint" />
          </mxGeometry>
        </mxCell>
        <mxCell id="sVLzmiFptOQufZ9ml3aE-300" value="" style="endArrow=none;html=1;rounded=0;strokeWidth=5;exitX=0.083;exitY=0.75;exitDx=0;exitDy=0;exitPerimeter=0;" edge="1" parent="1" source="4">
          <mxGeometry width="50" height="50" relative="1" as="geometry">
            <mxPoint x="160" y="160" as="sourcePoint" />
            <mxPoint x="160" y="540.6779661016949" as="targetPoint" />
          </mxGeometry>
        </mxCell>
        <mxCell id="sVLzmiFptOQufZ9ml3aE-278" value="" style="endArrow=none;html=1;rounded=0;entryX=0.083;entryY=0.25;entryDx=0;entryDy=0;entryPerimeter=0;strokeWidth=5;" edge="1" parent="1" target="3">
          <mxGeometry width="50" height="50" relative="1" as="geometry">
            <mxPoint x="20" y="1380" as="sourcePoint" />
            <mxPoint x="200" y="220" as="targetPoint" />
          </mxGeometry>
        </mxCell>
        <mxCell id="2" value="Data Analysis and Visualisation Tool" style="whiteSpace=wrap;rounded=1;shadow=1;fillColor=#10739E;strokeColor=none;fontColor=#FFFFFF;fontStyle=1;fontSize=24" parent="1" vertex="1">
          <mxGeometry x="244" y="10" width="336" height="60" as="geometry" />
        </mxCell>
        <mxCell id="3" value="1.0 Project Initiation and Planning" style="whiteSpace=wrap;rounded=1;fillColor=#F2931E;strokeColor=none;shadow=1;fontColor=#FFFFFF;fontStyle=1;fontSize=12;" parent="1" vertex="1">
          <mxGeometry x="10" y="100" width="120" height="40" as="geometry" />
        </mxCell>
        <mxCell id="4" value="2.0 Requirements Analysis and Design" style="whiteSpace=wrap;rounded=1;fillColor=#F2931E;strokeColor=none;shadow=1;fontColor=#FFFFFF;fontStyle=1;fontSize=12;" parent="1" vertex="1">
          <mxGeometry x="150" y="100" width="120" height="40" as="geometry" />
        </mxCell>
        <mxCell id="5" value="6.0&#xa;Delivery" style="whiteSpace=wrap;rounded=1;fillColor=#F2931E;strokeColor=none;shadow=1;fontColor=#FFFFFF;fontStyle=1;fontSize=12;" parent="1" vertex="1">
          <mxGeometry x="700" y="100" width="120" height="40" as="geometry" />
        </mxCell>
        <mxCell id="6" value="3.0 Tool Development" style="whiteSpace=wrap;rounded=1;fillColor=#F2931E;strokeColor=none;shadow=1;fontColor=#FFFFFF;fontStyle=1;fontSize=12;" parent="1" vertex="1">
          <mxGeometry x="290" y="100" width="120" height="40" as="geometry" />
        </mxCell>
        <mxCell id="8" value="5.0&#xa;Implementation" style="whiteSpace=wrap;rounded=1;fillColor=#F2931E;strokeColor=none;shadow=1;fontColor=#FFFFFF;fontStyle=1;fontSize=12;" parent="1" vertex="1">
          <mxGeometry x="560" y="100" width="120" height="40" as="geometry" />
        </mxCell>
        <mxCell id="10" value="1.1 Software Configuration Management" style="whiteSpace=wrap;rounded=1;fillColor=#12AAB5;strokeColor=none;shadow=1;fontColor=#FFFFFF;fontSize=10;fontStyle=1" parent="1" vertex="1">
          <mxGeometry x="40" y="150" width="90" height="60" as="geometry" />
        </mxCell>
        <mxCell id="7" value="4.0 Testing and Quality Assurance" style="whiteSpace=wrap;rounded=1;fillColor=#F2931E;strokeColor=none;shadow=1;fontColor=#FFFFFF;fontStyle=1;fontSize=12;" parent="1" vertex="1">
          <mxGeometry x="420" y="100" width="120" height="40" as="geometry" />
        </mxCell>
        <mxCell id="sVLzmiFptOQufZ9ml3aE-236" value="1.2 Version Control Systems" style="whiteSpace=wrap;rounded=1;fillColor=#12AAB5;strokeColor=none;shadow=1;fontColor=#FFFFFF;fontSize=10;fontStyle=1" vertex="1" parent="1">
          <mxGeometry x="40" y="220" width="90" height="60" as="geometry" />
        </mxCell>
        <mxCell id="sVLzmiFptOQufZ9ml3aE-237" value="1.3 High-Level Requirements and Scope Definition" style="whiteSpace=wrap;rounded=1;fillColor=#12AAB5;strokeColor=none;shadow=1;fontColor=#FFFFFF;fontSize=10;fontStyle=1" vertex="1" parent="1">
          <mxGeometry x="40" y="290" width="90" height="60" as="geometry" />
        </mxCell>
        <mxCell id="sVLzmiFptOQufZ9ml3aE-238" value="1.4 Project Team Formation" style="whiteSpace=wrap;rounded=1;fillColor=#12AAB5;strokeColor=none;shadow=1;fontColor=#FFFFFF;fontSize=10;fontStyle=1" vertex="1" parent="1">
          <mxGeometry x="40" y="360" width="90" height="60" as="geometry" />
        </mxCell>
        <mxCell id="sVLzmiFptOQufZ9ml3aE-239" value="1.5 Requirements Planning" style="whiteSpace=wrap;rounded=1;fillColor=#12AAB5;strokeColor=none;shadow=1;fontColor=#FFFFFF;fontSize=10;fontStyle=1" vertex="1" parent="1">
          <mxGeometry x="40" y="430" width="90" height="60" as="geometry" />
        </mxCell>
        <mxCell id="sVLzmiFptOQufZ9ml3aE-240" value="1.6 Set Project Team" style="whiteSpace=wrap;rounded=1;fillColor=#12AAB5;strokeColor=none;shadow=1;fontColor=#FFFFFF;fontSize=10;fontStyle=1" vertex="1" parent="1">
          <mxGeometry x="40" y="500" width="90" height="60" as="geometry" />
        </mxCell>
        <mxCell id="sVLzmiFptOQufZ9ml3aE-241" value="1.7 Initiate Team Meetings" style="whiteSpace=wrap;rounded=1;fillColor=#12AAB5;strokeColor=none;shadow=1;fontColor=#FFFFFF;fontSize=10;fontStyle=1" vertex="1" parent="1">
          <mxGeometry x="40" y="570" width="90" height="60" as="geometry" />
        </mxCell>
        <mxCell id="sVLzmiFptOQufZ9ml3aE-242" value="1.8 Develop Project Plan" style="whiteSpace=wrap;rounded=1;fillColor=#12AAB5;strokeColor=none;shadow=1;fontColor=#FFFFFF;fontSize=10;fontStyle=1" vertex="1" parent="1">
          <mxGeometry x="40" y="640" width="90" height="60" as="geometry" />
        </mxCell>
        <mxCell id="sVLzmiFptOQufZ9ml3aE-243" value="1.9 Request Approval" style="whiteSpace=wrap;rounded=1;fillColor=#12AAB5;strokeColor=none;shadow=1;fontColor=#FFFFFF;fontSize=10;fontStyle=1" vertex="1" parent="1">
          <mxGeometry x="40" y="710" width="90" height="60" as="geometry" />
        </mxCell>
        <mxCell id="sVLzmiFptOQufZ9ml3aE-244" value="1.10 Risk Management Analysis" style="whiteSpace=wrap;rounded=1;fillColor=#12AAB5;strokeColor=none;shadow=1;fontColor=#FFFFFF;fontSize=10;fontStyle=1" vertex="1" parent="1">
          <mxGeometry x="40" y="780" width="90" height="60" as="geometry" />
        </mxCell>
        <mxCell id="sVLzmiFptOQufZ9ml3aE-245" value="1.11 Evaluation and Recommendation" style="whiteSpace=wrap;rounded=1;fillColor=#12AAB5;strokeColor=none;shadow=1;fontColor=#FFFFFF;fontSize=10;fontStyle=1" vertex="1" parent="1">
          <mxGeometry x="40" y="850" width="90" height="60" as="geometry" />
        </mxCell>
        <mxCell id="sVLzmiFptOQufZ9ml3aE-246" value="1.12 Develop Project Chart" style="whiteSpace=wrap;rounded=1;fillColor=#12AAB5;strokeColor=none;shadow=1;fontColor=#FFFFFF;fontSize=10;fontStyle=1" vertex="1" parent="1">
          <mxGeometry x="40" y="920" width="90" height="60" as="geometry" />
        </mxCell>
        <mxCell id="sVLzmiFptOQufZ9ml3aE-247" value="1.13 Develop Scope" style="whiteSpace=wrap;rounded=1;fillColor=#12AAB5;strokeColor=none;shadow=1;fontColor=#FFFFFF;fontSize=10;fontStyle=1" vertex="1" parent="1">
          <mxGeometry x="40" y="990" width="90" height="60" as="geometry" />
        </mxCell>
        <mxCell id="sVLzmiFptOQufZ9ml3aE-248" value="1.14 Identify Stakeholders" style="whiteSpace=wrap;rounded=1;fillColor=#12AAB5;strokeColor=none;shadow=1;fontColor=#FFFFFF;fontSize=10;fontStyle=1" vertex="1" parent="1">
          <mxGeometry x="40" y="1060" width="90" height="60" as="geometry" />
        </mxCell>
        <mxCell id="sVLzmiFptOQufZ9ml3aE-249" value="1.15 External / Internal Communication" style="whiteSpace=wrap;rounded=1;fillColor=#12AAB5;strokeColor=none;shadow=1;fontColor=#FFFFFF;fontSize=10;fontStyle=1" vertex="1" parent="1">
          <mxGeometry x="40" y="1130" width="90" height="60" as="geometry" />
        </mxCell>
        <mxCell id="sVLzmiFptOQufZ9ml3aE-250" value="1.16 Time Management" style="whiteSpace=wrap;rounded=1;fillColor=#12AAB5;strokeColor=none;shadow=1;fontColor=#FFFFFF;fontSize=10;fontStyle=1" vertex="1" parent="1">
          <mxGeometry x="40" y="1200" width="90" height="60" as="geometry" />
        </mxCell>
        <mxCell id="sVLzmiFptOQufZ9ml3aE-251" value="1.17 Sponsor Reviews / Project Chart" style="whiteSpace=wrap;rounded=1;fillColor=#12AAB5;strokeColor=none;shadow=1;fontColor=#FFFFFF;fontSize=10;fontStyle=1" vertex="1" parent="1">
          <mxGeometry x="40" y="1270" width="90" height="60" as="geometry" />
        </mxCell>
        <mxCell id="sVLzmiFptOQufZ9ml3aE-252" value="2.1 Detailed User Requirements" style="whiteSpace=wrap;rounded=1;fillColor=#12AAB5;strokeColor=none;shadow=1;fontColor=#FFFFFF;fontSize=10;fontStyle=1" vertex="1" parent="1">
          <mxGeometry x="180" y="150" width="90" height="60" as="geometry" />
        </mxCell>
        <mxCell id="sVLzmiFptOQufZ9ml3aE-253" value="1.18 Project Chart Approved" style="whiteSpace=wrap;rounded=1;fillColor=#12AAB5;strokeColor=none;shadow=1;fontColor=#FFFFFF;fontSize=10;fontStyle=1" vertex="1" parent="1">
          <mxGeometry x="40" y="1340" width="90" height="60" as="geometry" />
        </mxCell>
        <mxCell id="sVLzmiFptOQufZ9ml3aE-254" value="3.1 GUI Development" style="whiteSpace=wrap;rounded=1;fillColor=#12AAB5;strokeColor=none;shadow=1;fontColor=#FFFFFF;fontSize=10;fontStyle=1" vertex="1" parent="1">
          <mxGeometry x="320" y="150" width="90" height="60" as="geometry" />
        </mxCell>
        <mxCell id="sVLzmiFptOQufZ9ml3aE-255" value="4.1 Unit Testing of GUI and APIs" style="whiteSpace=wrap;rounded=1;fillColor=#12AAB5;strokeColor=none;shadow=1;fontColor=#FFFFFF;fontSize=10;fontStyle=1" vertex="1" parent="1">
          <mxGeometry x="450" y="150" width="90" height="60" as="geometry" />
        </mxCell>
        <mxCell id="sVLzmiFptOQufZ9ml3aE-256" value="5.1 Facility construction" style="whiteSpace=wrap;rounded=1;fillColor=#12AAB5;strokeColor=none;shadow=1;fontColor=#FFFFFF;fontSize=10;fontStyle=1" vertex="1" parent="1">
          <mxGeometry x="590" y="150" width="90" height="60" as="geometry" />
        </mxCell>
        <mxCell id="sVLzmiFptOQufZ9ml3aE-257" value="6.1 Staff Training" style="whiteSpace=wrap;rounded=1;fillColor=#12AAB5;strokeColor=none;shadow=1;fontColor=#FFFFFF;fontSize=10;fontStyle=1" vertex="1" parent="1">
          <mxGeometry x="730" y="150" width="90" height="60" as="geometry" />
        </mxCell>
        <mxCell id="sVLzmiFptOQufZ9ml3aE-258" value="2.2 Use Case Identification and Prioritization" style="whiteSpace=wrap;rounded=1;fillColor=#12AAB5;strokeColor=none;shadow=1;fontColor=#FFFFFF;fontSize=10;fontStyle=1" vertex="1" parent="1">
          <mxGeometry x="180" y="220" width="90" height="60" as="geometry" />
        </mxCell>
        <mxCell id="sVLzmiFptOQufZ9ml3aE-259" value="2.3 User Interface Design and Wireframes" style="whiteSpace=wrap;rounded=1;fillColor=#12AAB5;strokeColor=none;shadow=1;fontColor=#FFFFFF;fontSize=10;fontStyle=1" vertex="1" parent="1">
          <mxGeometry x="180" y="290" width="90" height="60" as="geometry" />
        </mxCell>
        <mxCell id="sVLzmiFptOQufZ9ml3aE-260" value="2.4 Design Hardware &amp; Software" style="whiteSpace=wrap;rounded=1;fillColor=#12AAB5;strokeColor=none;shadow=1;fontColor=#FFFFFF;fontSize=10;fontStyle=1" vertex="1" parent="1">
          <mxGeometry x="180" y="360" width="90" height="60" as="geometry" />
        </mxCell>
        <mxCell id="sVLzmiFptOQufZ9ml3aE-261" value="2.5 Validation and Verification" style="whiteSpace=wrap;rounded=1;fillColor=#12AAB5;strokeColor=none;shadow=1;fontColor=#FFFFFF;fontSize=10;fontStyle=1" vertex="1" parent="1">
          <mxGeometry x="180" y="430" width="90" height="60" as="geometry" />
        </mxCell>
        <mxCell id="sVLzmiFptOQufZ9ml3aE-262" value="2.6 Designs Approved" style="whiteSpace=wrap;rounded=1;fillColor=#12AAB5;strokeColor=none;shadow=1;fontColor=#FFFFFF;fontSize=10;fontStyle=1" vertex="1" parent="1">
          <mxGeometry x="180" y="500" width="90" height="60" as="geometry" />
        </mxCell>
        <mxCell id="sVLzmiFptOQufZ9ml3aE-263" value="3.2 Backend API Development" style="whiteSpace=wrap;rounded=1;fillColor=#12AAB5;strokeColor=none;shadow=1;fontColor=#FFFFFF;fontSize=10;fontStyle=1" vertex="1" parent="1">
          <mxGeometry x="320" y="220" width="90" height="60" as="geometry" />
        </mxCell>
        <mxCell id="sVLzmiFptOQufZ9ml3aE-264" value="3.3 Database Implementation" style="whiteSpace=wrap;rounded=1;fillColor=#12AAB5;strokeColor=none;shadow=1;fontColor=#FFFFFF;fontSize=10;fontStyle=1" vertex="1" parent="1">
          <mxGeometry x="320" y="290" width="90" height="60" as="geometry" />
        </mxCell>
        <mxCell id="sVLzmiFptOQufZ9ml3aE-265" value="4.2 Integration Testing of Components" style="whiteSpace=wrap;rounded=1;fillColor=#12AAB5;strokeColor=none;shadow=1;fontColor=#FFFFFF;fontSize=10;fontStyle=1" vertex="1" parent="1">
          <mxGeometry x="450" y="220" width="90" height="60" as="geometry" />
        </mxCell>
        <mxCell id="sVLzmiFptOQufZ9ml3aE-266" value="4.3 User Acceptance Testing" style="whiteSpace=wrap;rounded=1;fillColor=#12AAB5;strokeColor=none;shadow=1;fontColor=#FFFFFF;fontSize=10;fontStyle=1" vertex="1" parent="1">
          <mxGeometry x="450" y="290" width="90" height="60" as="geometry" />
        </mxCell>
        <mxCell id="sVLzmiFptOQufZ9ml3aE-267" value="4.4 Validation and verification" style="whiteSpace=wrap;rounded=1;fillColor=#12AAB5;strokeColor=none;shadow=1;fontColor=#FFFFFF;fontSize=10;fontStyle=1" vertex="1" parent="1">
          <mxGeometry x="450" y="360" width="90" height="60" as="geometry" />
        </mxCell>
        <mxCell id="sVLzmiFptOQufZ9ml3aE-268" value="4.5 User Feedback" style="whiteSpace=wrap;rounded=1;fillColor=#12AAB5;strokeColor=none;shadow=1;fontColor=#FFFFFF;fontSize=10;fontStyle=1" vertex="1" parent="1">
          <mxGeometry x="450" y="430" width="90" height="60" as="geometry" />
        </mxCell>
        <mxCell id="sVLzmiFptOQufZ9ml3aE-269" value="4.6 Approved" style="whiteSpace=wrap;rounded=1;fillColor=#12AAB5;strokeColor=none;shadow=1;fontColor=#FFFFFF;fontSize=10;fontStyle=1" vertex="1" parent="1">
          <mxGeometry x="450" y="500" width="90" height="60" as="geometry" />
        </mxCell>
        <mxCell id="sVLzmiFptOQufZ9ml3aE-270" value="5.2 Installation" style="whiteSpace=wrap;rounded=1;fillColor=#12AAB5;strokeColor=none;shadow=1;fontColor=#FFFFFF;fontSize=10;fontStyle=1" vertex="1" parent="1">
          <mxGeometry x="590" y="220" width="90" height="60" as="geometry" />
        </mxCell>
        <mxCell id="sVLzmiFptOQufZ9ml3aE-271" value="5.3 Beta Testing" style="whiteSpace=wrap;rounded=1;fillColor=#12AAB5;strokeColor=none;shadow=1;fontColor=#FFFFFF;fontSize=10;fontStyle=1" vertex="1" parent="1">
          <mxGeometry x="590" y="290" width="90" height="60" as="geometry" />
        </mxCell>
        <mxCell id="sVLzmiFptOQufZ9ml3aE-272" value="6.2 Support" style="whiteSpace=wrap;rounded=1;fillColor=#12AAB5;strokeColor=none;shadow=1;fontColor=#FFFFFF;fontSize=10;fontStyle=1" vertex="1" parent="1">
          <mxGeometry x="730" y="220" width="90" height="60" as="geometry" />
        </mxCell>
        <mxCell id="sVLzmiFptOQufZ9ml3aE-279" value="" style="endArrow=none;html=1;rounded=0;strokeWidth=5;" edge="1" parent="1" source="10">
          <mxGeometry width="50" height="50" relative="1" as="geometry">
            <mxPoint x="150" y="280" as="sourcePoint" />
            <mxPoint x="20" y="179" as="targetPoint" />
          </mxGeometry>
        </mxCell>
        <mxCell id="sVLzmiFptOQufZ9ml3aE-280" value="" style="endArrow=none;html=1;rounded=0;strokeWidth=5;" edge="1" parent="1">
          <mxGeometry width="50" height="50" relative="1" as="geometry">
            <mxPoint x="40" y="249.74" as="sourcePoint" />
            <mxPoint x="20" y="249.74" as="targetPoint" />
          </mxGeometry>
        </mxCell>
        <mxCell id="sVLzmiFptOQufZ9ml3aE-281" value="" style="endArrow=none;html=1;rounded=0;strokeWidth=5;" edge="1" parent="1">
          <mxGeometry width="50" height="50" relative="1" as="geometry">
            <mxPoint x="40" y="319.74" as="sourcePoint" />
            <mxPoint x="20" y="319.74" as="targetPoint" />
          </mxGeometry>
        </mxCell>
        <mxCell id="sVLzmiFptOQufZ9ml3aE-282" value="" style="endArrow=none;html=1;rounded=0;strokeWidth=5;" edge="1" parent="1">
          <mxGeometry width="50" height="50" relative="1" as="geometry">
            <mxPoint x="40" y="389.74" as="sourcePoint" />
            <mxPoint x="20" y="389.74" as="targetPoint" />
          </mxGeometry>
        </mxCell>
        <mxCell id="sVLzmiFptOQufZ9ml3aE-283" value="" style="endArrow=none;html=1;rounded=0;strokeWidth=5;" edge="1" parent="1">
          <mxGeometry width="50" height="50" relative="1" as="geometry">
            <mxPoint x="40" y="459.74" as="sourcePoint" />
            <mxPoint x="20" y="459.74" as="targetPoint" />
          </mxGeometry>
        </mxCell>
        <mxCell id="sVLzmiFptOQufZ9ml3aE-284" value="" style="endArrow=none;html=1;rounded=0;strokeWidth=5;" edge="1" parent="1">
          <mxGeometry width="50" height="50" relative="1" as="geometry">
            <mxPoint x="40" y="529.74" as="sourcePoint" />
            <mxPoint x="20" y="529.74" as="targetPoint" />
          </mxGeometry>
        </mxCell>
        <mxCell id="sVLzmiFptOQufZ9ml3aE-285" value="" style="endArrow=none;html=1;rounded=0;strokeWidth=5;" edge="1" parent="1">
          <mxGeometry width="50" height="50" relative="1" as="geometry">
            <mxPoint x="40" y="599.74" as="sourcePoint" />
            <mxPoint x="20" y="599.74" as="targetPoint" />
          </mxGeometry>
        </mxCell>
        <mxCell id="sVLzmiFptOQufZ9ml3aE-286" value="" style="endArrow=none;html=1;rounded=0;strokeWidth=5;" edge="1" parent="1">
          <mxGeometry width="50" height="50" relative="1" as="geometry">
            <mxPoint x="40" y="669.74" as="sourcePoint" />
            <mxPoint x="20" y="669.74" as="targetPoint" />
          </mxGeometry>
        </mxCell>
        <mxCell id="sVLzmiFptOQufZ9ml3aE-287" value="" style="endArrow=none;html=1;rounded=0;strokeWidth=5;" edge="1" parent="1">
          <mxGeometry width="50" height="50" relative="1" as="geometry">
            <mxPoint x="40" y="739.74" as="sourcePoint" />
            <mxPoint x="20" y="739.74" as="targetPoint" />
          </mxGeometry>
        </mxCell>
        <mxCell id="sVLzmiFptOQufZ9ml3aE-288" value="" style="endArrow=none;html=1;rounded=0;strokeWidth=5;" edge="1" parent="1">
          <mxGeometry width="50" height="50" relative="1" as="geometry">
            <mxPoint x="40" y="809.74" as="sourcePoint" />
            <mxPoint x="20" y="809.74" as="targetPoint" />
          </mxGeometry>
        </mxCell>
        <mxCell id="sVLzmiFptOQufZ9ml3aE-289" value="" style="endArrow=none;html=1;rounded=0;strokeWidth=5;" edge="1" parent="1">
          <mxGeometry width="50" height="50" relative="1" as="geometry">
            <mxPoint x="40" y="879.74" as="sourcePoint" />
            <mxPoint x="20" y="879.74" as="targetPoint" />
          </mxGeometry>
        </mxCell>
        <mxCell id="sVLzmiFptOQufZ9ml3aE-290" value="" style="endArrow=none;html=1;rounded=0;strokeWidth=5;" edge="1" parent="1">
          <mxGeometry width="50" height="50" relative="1" as="geometry">
            <mxPoint x="40" y="949.74" as="sourcePoint" />
            <mxPoint x="20" y="949.74" as="targetPoint" />
          </mxGeometry>
        </mxCell>
        <mxCell id="sVLzmiFptOQufZ9ml3aE-291" value="" style="endArrow=none;html=1;rounded=0;strokeWidth=5;" edge="1" parent="1">
          <mxGeometry width="50" height="50" relative="1" as="geometry">
            <mxPoint x="40" y="1019.74" as="sourcePoint" />
            <mxPoint x="20" y="1019.74" as="targetPoint" />
          </mxGeometry>
        </mxCell>
        <mxCell id="sVLzmiFptOQufZ9ml3aE-292" value="" style="endArrow=none;html=1;rounded=0;strokeWidth=5;" edge="1" parent="1">
          <mxGeometry width="50" height="50" relative="1" as="geometry">
            <mxPoint x="40" y="1089.74" as="sourcePoint" />
            <mxPoint x="20" y="1089.74" as="targetPoint" />
          </mxGeometry>
        </mxCell>
        <mxCell id="sVLzmiFptOQufZ9ml3aE-293" value="" style="endArrow=none;html=1;rounded=0;strokeWidth=5;" edge="1" parent="1">
          <mxGeometry width="50" height="50" relative="1" as="geometry">
            <mxPoint x="40" y="1159.74" as="sourcePoint" />
            <mxPoint x="20" y="1159.74" as="targetPoint" />
          </mxGeometry>
        </mxCell>
        <mxCell id="sVLzmiFptOQufZ9ml3aE-294" value="" style="endArrow=none;html=1;rounded=0;strokeWidth=5;" edge="1" parent="1">
          <mxGeometry width="50" height="50" relative="1" as="geometry">
            <mxPoint x="40" y="1229.74" as="sourcePoint" />
            <mxPoint x="20" y="1229.74" as="targetPoint" />
          </mxGeometry>
        </mxCell>
        <mxCell id="sVLzmiFptOQufZ9ml3aE-295" value="" style="endArrow=none;html=1;rounded=0;strokeWidth=5;" edge="1" parent="1">
          <mxGeometry width="50" height="50" relative="1" as="geometry">
            <mxPoint x="40" y="1299.74" as="sourcePoint" />
            <mxPoint x="20" y="1299.74" as="targetPoint" />
          </mxGeometry>
        </mxCell>
        <mxCell id="sVLzmiFptOQufZ9ml3aE-298" value="" style="endArrow=none;html=1;rounded=0;strokeWidth=5;" edge="1" parent="1">
          <mxGeometry width="50" height="50" relative="1" as="geometry">
            <mxPoint x="40" y="1369.93" as="sourcePoint" />
            <mxPoint x="20" y="1369.93" as="targetPoint" />
          </mxGeometry>
        </mxCell>
        <mxCell id="sVLzmiFptOQufZ9ml3aE-299" value="" style="endArrow=none;html=1;rounded=0;strokeWidth=5;" edge="1" parent="1">
          <mxGeometry width="50" height="50" relative="1" as="geometry">
            <mxPoint x="180" y="179.83" as="sourcePoint" />
            <mxPoint x="160" y="179.83" as="targetPoint" />
          </mxGeometry>
        </mxCell>
        <mxCell id="sVLzmiFptOQufZ9ml3aE-301" value="" style="endArrow=none;html=1;rounded=0;strokeWidth=5;" edge="1" parent="1">
          <mxGeometry width="50" height="50" relative="1" as="geometry">
            <mxPoint x="180" y="249.83" as="sourcePoint" />
            <mxPoint x="160" y="249.83" as="targetPoint" />
          </mxGeometry>
        </mxCell>
        <mxCell id="sVLzmiFptOQufZ9ml3aE-302" value="" style="endArrow=none;html=1;rounded=0;strokeWidth=5;" edge="1" parent="1">
          <mxGeometry width="50" height="50" relative="1" as="geometry">
            <mxPoint x="180" y="319.83000000000004" as="sourcePoint" />
            <mxPoint x="160" y="319.83000000000004" as="targetPoint" />
          </mxGeometry>
        </mxCell>
        <mxCell id="sVLzmiFptOQufZ9ml3aE-303" value="" style="endArrow=none;html=1;rounded=0;strokeWidth=5;" edge="1" parent="1">
          <mxGeometry width="50" height="50" relative="1" as="geometry">
            <mxPoint x="180" y="389.83000000000004" as="sourcePoint" />
            <mxPoint x="160" y="389.83000000000004" as="targetPoint" />
          </mxGeometry>
        </mxCell>
        <mxCell id="sVLzmiFptOQufZ9ml3aE-304" value="" style="endArrow=none;html=1;rounded=0;strokeWidth=5;" edge="1" parent="1">
          <mxGeometry width="50" height="50" relative="1" as="geometry">
            <mxPoint x="180" y="459.83000000000004" as="sourcePoint" />
            <mxPoint x="160" y="459.83000000000004" as="targetPoint" />
          </mxGeometry>
        </mxCell>
        <mxCell id="sVLzmiFptOQufZ9ml3aE-305" value="" style="endArrow=none;html=1;rounded=0;strokeWidth=5;" edge="1" parent="1">
          <mxGeometry width="50" height="50" relative="1" as="geometry">
            <mxPoint x="180" y="529.83" as="sourcePoint" />
            <mxPoint x="160" y="529.83" as="targetPoint" />
          </mxGeometry>
        </mxCell>
        <mxCell id="sVLzmiFptOQufZ9ml3aE-306" value="" style="endArrow=none;html=1;rounded=0;strokeWidth=5;" edge="1" parent="1">
          <mxGeometry width="50" height="50" relative="1" as="geometry">
            <mxPoint x="320" y="179.83" as="sourcePoint" />
            <mxPoint x="300" y="179.83" as="targetPoint" />
          </mxGeometry>
        </mxCell>
        <mxCell id="sVLzmiFptOQufZ9ml3aE-308" value="" style="endArrow=none;html=1;rounded=0;strokeWidth=5;" edge="1" parent="1">
          <mxGeometry width="50" height="50" relative="1" as="geometry">
            <mxPoint x="320" y="249.83" as="sourcePoint" />
            <mxPoint x="300" y="249.83" as="targetPoint" />
          </mxGeometry>
        </mxCell>
        <mxCell id="sVLzmiFptOQufZ9ml3aE-309" value="" style="endArrow=none;html=1;rounded=0;strokeWidth=5;" edge="1" parent="1">
          <mxGeometry width="50" height="50" relative="1" as="geometry">
            <mxPoint x="320" y="319.83000000000004" as="sourcePoint" />
            <mxPoint x="300" y="319.83000000000004" as="targetPoint" />
          </mxGeometry>
        </mxCell>
        <mxCell id="sVLzmiFptOQufZ9ml3aE-311" value="" style="endArrow=none;html=1;rounded=0;strokeWidth=5;" edge="1" parent="1">
          <mxGeometry width="50" height="50" relative="1" as="geometry">
            <mxPoint x="450" y="179.8" as="sourcePoint" />
            <mxPoint x="430" y="179.8" as="targetPoint" />
          </mxGeometry>
        </mxCell>
        <mxCell id="sVLzmiFptOQufZ9ml3aE-312" value="" style="endArrow=none;html=1;rounded=0;strokeWidth=5;" edge="1" parent="1">
          <mxGeometry width="50" height="50" relative="1" as="geometry">
            <mxPoint x="450" y="249.8" as="sourcePoint" />
            <mxPoint x="430" y="249.8" as="targetPoint" />
          </mxGeometry>
        </mxCell>
        <mxCell id="sVLzmiFptOQufZ9ml3aE-313" value="" style="endArrow=none;html=1;rounded=0;strokeWidth=5;" edge="1" parent="1">
          <mxGeometry width="50" height="50" relative="1" as="geometry">
            <mxPoint x="450" y="319.8" as="sourcePoint" />
            <mxPoint x="430" y="319.8" as="targetPoint" />
          </mxGeometry>
        </mxCell>
        <mxCell id="sVLzmiFptOQufZ9ml3aE-314" value="" style="endArrow=none;html=1;rounded=0;strokeWidth=5;" edge="1" parent="1">
          <mxGeometry width="50" height="50" relative="1" as="geometry">
            <mxPoint x="450" y="389.8" as="sourcePoint" />
            <mxPoint x="430" y="389.8" as="targetPoint" />
          </mxGeometry>
        </mxCell>
        <mxCell id="sVLzmiFptOQufZ9ml3aE-315" value="" style="endArrow=none;html=1;rounded=0;strokeWidth=5;" edge="1" parent="1">
          <mxGeometry width="50" height="50" relative="1" as="geometry">
            <mxPoint x="450" y="459.8" as="sourcePoint" />
            <mxPoint x="430" y="459.8" as="targetPoint" />
          </mxGeometry>
        </mxCell>
        <mxCell id="sVLzmiFptOQufZ9ml3aE-316" value="" style="endArrow=none;html=1;rounded=0;strokeWidth=5;" edge="1" parent="1">
          <mxGeometry width="50" height="50" relative="1" as="geometry">
            <mxPoint x="450" y="529.8" as="sourcePoint" />
            <mxPoint x="430" y="529.8" as="targetPoint" />
          </mxGeometry>
        </mxCell>
        <mxCell id="sVLzmiFptOQufZ9ml3aE-318" value="" style="endArrow=none;html=1;rounded=0;strokeWidth=5;" edge="1" parent="1">
          <mxGeometry width="50" height="50" relative="1" as="geometry">
            <mxPoint x="590" y="179.8" as="sourcePoint" />
            <mxPoint x="570" y="179.8" as="targetPoint" />
          </mxGeometry>
        </mxCell>
        <mxCell id="sVLzmiFptOQufZ9ml3aE-319" value="" style="endArrow=none;html=1;rounded=0;strokeWidth=5;" edge="1" parent="1">
          <mxGeometry width="50" height="50" relative="1" as="geometry">
            <mxPoint x="590" y="249.8" as="sourcePoint" />
            <mxPoint x="570" y="249.8" as="targetPoint" />
          </mxGeometry>
        </mxCell>
        <mxCell id="sVLzmiFptOQufZ9ml3aE-320" value="" style="endArrow=none;html=1;rounded=0;strokeWidth=5;" edge="1" parent="1">
          <mxGeometry width="50" height="50" relative="1" as="geometry">
            <mxPoint x="590" y="319.8" as="sourcePoint" />
            <mxPoint x="570" y="319.8" as="targetPoint" />
          </mxGeometry>
        </mxCell>
        <mxCell id="sVLzmiFptOQufZ9ml3aE-322" value="" style="endArrow=none;html=1;rounded=0;strokeWidth=5;" edge="1" parent="1">
          <mxGeometry width="50" height="50" relative="1" as="geometry">
            <mxPoint x="730" y="249.8" as="sourcePoint" />
            <mxPoint x="710" y="249.8" as="targetPoint" />
          </mxGeometry>
        </mxCell>
        <mxCell id="sVLzmiFptOQufZ9ml3aE-323" value="" style="endArrow=none;html=1;rounded=0;strokeWidth=5;" edge="1" parent="1">
          <mxGeometry width="50" height="50" relative="1" as="geometry">
            <mxPoint x="730" y="179.8" as="sourcePoint" />
            <mxPoint x="710" y="179.8" as="targetPoint" />
          </mxGeometry>
        </mxCell>
        <mxCell id="sVLzmiFptOQufZ9ml3aE-324" value="" style="endArrow=none;html=1;rounded=0;strokeWidth=5;" edge="1" parent="1">
          <mxGeometry width="50" height="50" relative="1" as="geometry">
            <mxPoint x="762" y="80" as="sourcePoint" />
            <mxPoint x="72" y="81" as="targetPoint" />
          </mxGeometry>
        </mxCell>
        <mxCell id="sVLzmiFptOQufZ9ml3aE-331" value="" style="endArrow=none;html=1;rounded=0;strokeWidth=5;" edge="1" parent="1">
          <mxGeometry width="50" height="50" relative="1" as="geometry">
            <mxPoint x="619.8" y="100" as="sourcePoint" />
            <mxPoint x="619.8" y="80" as="targetPoint" />
          </mxGeometry>
        </mxCell>
        <mxCell id="sVLzmiFptOQufZ9ml3aE-332" value="" style="endArrow=none;html=1;rounded=0;strokeWidth=5;" edge="1" parent="1">
          <mxGeometry width="50" height="50" relative="1" as="geometry">
            <mxPoint x="759.8" y="100" as="sourcePoint" />
            <mxPoint x="759.8" y="80" as="targetPoint" />
          </mxGeometry>
        </mxCell>
      </root>
    </mxGraphModel>
  </diagram>
</mxfile>
